<svg width="207" height="24" viewBox="0 0 207 24" fill="none" xmlns="http://www.w3.org/2000/svg">
<path d="M0.296 23H13.304C20.744 23 22.472 20.576 22.472 17.336V17.096C22.472 13.928 20.696 11.624 13.328 11.624H5.888V8.912H21.176V5.144H0.296V23ZM5.888 19.112V15.392H13.28C15.896 15.392 16.64 16.088 16.64 17.168V17.24C16.64 18.296 15.896 19.112 13.28 19.112H5.888ZM40.4392 15.704H33.6712L36.9832 9.008L40.4392 15.704ZM44.1832 23H50.2072L40.6552 5.144H33.4072L24.3832 23H30.0712L31.6792 19.736H42.5032L44.1832 23ZM66.8412 17.048C73.2253 17.048 75.1693 14.384 75.1693 11.192V10.952C75.1693 7.688 73.2732 5.144 66.8412 5.144H53.4492V23H59.0412V17.048H66.8412ZM59.0412 9.2H66.7452C68.5453 9.2 69.3373 9.872 69.3373 11.096V11.168C69.3373 12.392 68.4972 13.04 66.7452 13.04H59.0412V9.2ZM100.902 4.832C89.5981 4.832 88.3261 10.472 88.3261 13.664V14.384C88.3261 17.528 89.5981 23.312 100.902 23.312H101.934C113.19 23.312 114.486 17.528 114.486 14.384V13.664C114.486 10.472 113.166 4.832 101.934 4.832H100.902ZM108.63 14.168C108.63 16.232 107.406 18.968 101.406 18.968C95.3581 18.968 94.1821 16.16 94.1821 14.12V13.832C94.1821 11.792 95.2621 9.152 101.406 9.152C107.454 9.152 108.63 11.792 108.63 13.832V14.168ZM128.462 23H134.054V9.464H145.07V23H150.662V5.144H128.462V23ZM170.035 15.704H163.267L166.579 9.008L170.035 15.704ZM173.779 23H179.803L170.251 5.144H163.003L153.979 23H159.667L161.275 19.736H172.099L173.779 23ZM200.541 23H206.133V5.144H200.541L188.565 16.976V5.144H182.973V23H188.565L200.541 11.216V23ZM195.141 4.112C199.125 4.112 200.277 1.424 200.277 0.223999V0.175999H196.245C196.245 0.487999 196.005 1.328 194.757 1.328C193.461 1.328 193.245 0.487999 193.245 0.175999H189.117V0.223999C189.117 1.424 189.981 4.112 194.325 4.112H195.141Z" fill="black"/>
</svg>
